<svg viewBox="0 0 290 190" xmlns="http://www.w3.org/2000/svg"><rect fill="#fff" height="185" rx="18.96" width="285" x="2.5" y="2.5"/><path d="m268.54 5c9.07 0 16.46 7.38 16.46 16.46v147.09c0 9.07-7.38 16.46-16.46 16.46h-247.08c-9.07 0-16.46-7.38-16.46-16.46v-147.09c0-9.07 7.38-16.46 16.46-16.46h247.09m-.01-5h-247.08c-11.85 0-21.46 9.61-21.46 21.46v147.09c0 11.85 9.61 21.46 21.46 21.46h247.09c11.85 0 21.46-9.61 21.46-21.46v-147.09c0-11.85-9.61-21.46-21.46-21.46z"/><g font-family="SourceSansRoman-Regular, 'Source Sans Variable'"><text font-size="72.36" transform="translate(161 160.91)"><tspan letter-spacing="-.03em" x="0" y="0">C</tspan><tspan x="39.36" y="0">trl</tspan></text><text font-size="104.57" transform="translate(16.64 94.88)"><tspan x="0" y="0">^</tspan></text></g></svg>