<svg viewBox="0 0 190 190" xmlns="http://www.w3.org/2000/svg"><rect fill="#fff" height="185" rx="18.96" width="185" x="2.5" y="2.5"/><path d="m168.54 5c9.07 0 16.46 7.38 16.46 16.46v147.09c0 9.07-7.38 16.46-16.46 16.46h-147.08c-9.07 0-16.46-7.38-16.46-16.46v-147.09c0-9.07 7.38-16.46 16.46-16.46h147.09m-.01-5h-147.08c-11.85 0-21.46 9.61-21.46 21.46v147.09c0 11.85 9.61 21.46 21.46 21.46h147.09c11.85 0 21.46-9.61 21.46-21.46v-147.09c0-11.85-9.61-21.46-21.46-21.46z"/><text font-family="SourceSansRoman-Regular, 'Source Sans Variable'" font-size="60" transform="translate(46.13 111.26)"><tspan x="0" y="0">End</tspan></text><text/></svg>