<svg viewBox="0 0 290 190" xmlns="http://www.w3.org/2000/svg"><rect fill="#fff" height="185" rx="18.96" width="285" x="2.5" y="2.5"/><path d="m268.54 5c9.07 0 16.46 7.38 16.46 16.46v147.09c0 9.07-7.38 16.46-16.46 16.46h-247.08c-9.07 0-16.46-7.38-16.46-16.46v-147.09c0-9.07 7.38-16.46 16.46-16.46h247.09m-.01-5h-247.08c-11.85 0-21.46 9.61-21.46 21.46v147.09c0 11.85 9.61 21.46 21.46 21.46h247.09c11.85 0 21.46-9.61 21.46-21.46v-147.09c0-11.85-9.61-21.46-21.46-21.46z"/><text font-family="SourceSansRoman-Regular, 'Source Sans Variable'" font-size="72" transform="translate(90.42 114.51)"><tspan letter-spacing="-.07em" x="0" y="0">T</tspan><tspan x="33.34" y="0">a</tspan><tspan letter-spacing="0em" x="69.62" y="0">b</tspan></text><text/></svg>