<?xml version="1.0" encoding="UTF-8"?>
<svg xmlns="http://www.w3.org/2000/svg" onmouseup="{ if(window.parent.document.onmouseup) window.parent.document.onmouseup(arguments[0]);}" viewBox="0 0 19.3 18.5" version="1.1"><defs><style>
      .cls-1 {
        stroke: #fff;
        stroke-miterlimit: 10;
        stroke-width: .2px;
      }
    </style></defs><g><g id="Layer_1"><path data-cppathid="10000" d="M9.7,16.2c-.3,0-.5-.2-.5-.5V2.7c0-.3.2-.5.5-.5s.5.2.5.5v13c0,.3-.2.5-.5.5M1.8,9.6c-.2-.2-.2-.5,0-.7,0,0,0,0,0,0l2-2c.2-.2.5-.2.7,0,.2.2.2.5,0,.7l-1.1,1.1h3.8c.3,0,.5.2.5.5s-.2.5-.5.5h-3.8l1.1,1.1c.2.2.2.5,0,.7-.2.2-.5.2-.7,0h0l-2-2ZM11.7,9.2c0-.3.2-.5.5-.5h3.8l-1.1-1.1c-.2-.2-.2-.5,0-.7s.5-.2.7,0h0l2,2c.2.2.2.5,0,.7,0,0,0,0,0,0l-2,2c-.2.2-.5.2-.7,0s-.2-.5,0-.7l1.1-1.1h-3.8c-.3,0-.5-.2-.5-.5" class="cls-1"/></g></g></svg>